<svg width="640" height="480" xmlns="http://www.w3.org/2000/svg" xmlns:svg="http://www.w3.org/2000/svg">
 <g>
  <title>hand writing</title>
  <g id="svg_1">
   <path d="m163,123.899994l0,7.899994c0,3.300018 -2.200012,6.200012 -5.5,6.200012l-63,0c-3.300003,0 -6.5,-2.899994 -6.5,-6.200012l0,-88.999985c0,-3.300003 3.199997,-5.800003 6.5,-5.800003l63,0c3.299988,0 5.5,2.5 5.5,5.800003l0,48.899994l4,-4l0,-44.899994c0,-5.5 -4,-9.800003 -9.5,-9.800003l-63,0c-5.5,0 -10.5,4.300003 -10.5,9.800003l0,88.999985c0,5.5 5,10.200012 10.5,10.200012l63,0c5.5,0 9.5,-4.700012 9.5,-10.200012l0,-11.899994l-4,4z" fill="#3B97D3" id="svg_1"/>
   <path d="m183.700012,94.199997c0,-0.5 -0.200012,-0.899994 -0.600006,-1.199997c0,0 0,0 0,0l-5.200012,-5.200012c0,0 0,0 0,0c-0.299988,-0.299988 -0.799988,-0.499985 -1.299988,-0.599991l-4.899994,-0.300003c-0.600006,0 -1.100006,0.200012 -1.5,0.5c0,0 0,0 0,0l-24.800018,24.800003c-0.799988,0.800003 -0.799988,2 0,2.800003c0.399994,0.399994 0.900024,0.600006 1.399994,0.600006s1,-0.200012 1.400024,-0.600006l24.199982,-24.200012l3.300018,0.200012l4.099976,4.100006l0.200012,3.299988l-24.200012,24.200012c-0.799988,0.800003 -0.799988,2 0,2.799988c0.400024,0.399994 0.900024,0.600006 1.400024,0.600006s1,-0.200012 1.399994,-0.600006l24.799988,-24.799988c0.399994,-0.400009 0.600006,-1 0.600006,-1.5c0,0 0,0 0,0l-0.299988,-4.900009z" fill="#2C3E50" id="svg_2"/>
   <path d="m152.399994,119.600006l23.900024,-23.900009c0.399994,-0.399994 0.399994,-1 0,-1.399994s-1,-0.400009 -1.400024,0l-23.899994,23.899994c-0.399994,0.400009 -0.399994,1 0,1.400009c0.200012,0.199982 0.5,0.299988 0.700012,0.299988s0.5,-0.099991 0.699982,-0.299988z" fill="#2C3E50" id="svg_3"/>
   <path d="m152.799988,126l-7,1.600006l-2.699982,-2.700012l1.699982,-7c0.300018,-1.099991 -0.399994,-2.199997 -1.499969,-2.399994c-1.100006,-0.300003 -2.200012,0.399994 -2.400024,1.5l-3.199982,13.700012c-0.300018,1.099976 0.399994,2.199982 1.5,2.399994c0.199982,0 0.299988,0.100006 0.5,0.100006c0.199982,0 0.299988,0 0.5,-0.100006c0,0 0,0 0,0l13.699982,-3.200012c1.100006,-0.299988 1.700012,-1.299988 1.5,-2.399994c-0.399994,-1.100006 -1.5,-1.700012 -2.600006,-1.5z" fill="#2C3E50" id="svg_4"/>
  </g>
  <text xml:space="preserve" text-anchor="middle" font-family="serif" font-size="24" id="svg_6" y="255" x="202" stroke-linecap="null" stroke-linejoin="null" stroke-dasharray="null" stroke-width="0" fill="#000000"/>
  <text style="cursor: move;" xml:space="preserve" text-anchor="middle" font-family="Serif" font-size="24" id="svg_7" y="67" x="127" stroke-linecap="null" stroke-linejoin="null" stroke-dasharray="null" stroke-width="0" fill="#000000">Jia He</text>
  <path id="svg_5" d="m116.013008,116.580986c-1.229439,-0.457283 -2.568642,0.210686 -3.88224,-0.454536c1.062614,-0.057129 2.659134,-0.004395 2.377335,-1.371643c0.465057,-1.597008 -0.478508,-3.271812 0.306793,-4.661621c-1.230278,-1.018394 -2.521103,-2.224205 -3.177261,-3.646217c-0.131317,0.573486 -0.252869,1.030457 -0.439621,0.040649c-0.107613,-0.483994 -0.042412,1.196793 -0.452232,0.017578c-0.432487,-1.048691 -1.59655,-3.783165 -1.957611,-1.246948c-0.150459,1.308975 -0.621132,0.380127 -0.836029,-0.450439c-0.21859,-1.599564 -1.008446,-3.080559 -1.215492,-4.67749c0.808441,-1.010727 -0.115196,-1.148819 -0.544762,-0.139938c-0.473076,1.600639 -0.878632,3.184265 -0.385124,4.832809c-0.656204,0.46582 -1.922134,-2.166458 -1.339905,-3.17614c0.505264,-1.142532 0.393211,-2.308815 0.477013,-3.081352c0.462135,-0.872307 -0.449081,-1.819977 0.035133,-2.749435c-1.238121,1.170723 -2.345032,1.981651 -1.997482,3.818604c-0.153511,0.457664 0.516266,3.093285 0.089577,2.123146c-0.805244,-1.894661 -0.805557,-3.992523 -0.19973,-5.925728c0.000313,-1.474991 -1.378487,2.548195 -1.276558,0.576157c-0.130402,-1.486923 0.575775,-3.122635 1.244904,-4.298889c-0.761879,-0.78669 -3.228905,-0.228516 -2.061546,-1.898453c1.148369,-0.848701 1.025238,-2.015488 -0.537781,-0.989349c-2.413536,1.538132 -4.416214,3.514572 -6.629066,5.261414c2.125809,-2.37088 4.522568,-4.665924 7.489075,-6.256531c2.87603,-1.571915 7.047035,-1.734512 9.528519,0.517761c0.631142,0.96463 2.098526,1.604584 2.448624,2.473c-0.257286,1.301933 0.71122,1.947014 0.815125,3.09156c0.611732,0.882195 -0.551407,2.469292 1.188416,2.012245c1.978485,-0.002205 4.686493,-0.382767 4.841621,-2.524185c0.789543,-3.083656 1.153313,-6.529488 3.681511,-8.984169c1.405693,-0.712997 0.532677,-0.522934 -0.494438,-0.640709c-0.907852,-0.916603 0.916641,-2.387878 1.814621,-2.555969c-0.154716,-2.166649 1.467827,1.299133 1.931862,-0.291687c0.695717,0.011391 1.035339,1.459938 1.458214,0.27726c1.262283,0.927246 2.595505,2.327805 0.928711,3.619041c1.896606,0.78849 -1.932091,0.277405 -0.298813,1.486122c1.348114,1.130554 0.39502,3.219284 -0.711212,4.129333c-0.04306,0.684616 1.297394,1.678879 1.566788,2.508896c1.39238,2.338837 1.671921,5.121689 1.13826,7.685608c-0.751816,2.415932 -3.548294,3.46666 -5.525658,5.00145c-1.689323,1.201843 -1.094604,3.30957 -1.89444,4.887184c0.079781,0.911278 0.665581,1.948997 1.498138,2.49939c1.207207,0.585106 2.62088,0.962509 3.596733,1.819443c-0.891342,0.403748 -2.708595,-1.235435 -2.725945,0.047218c-1.324097,-1.492615 -3.311241,-0.491066 -4.766708,-1.638733c1.211082,0.199951 2.785179,0.097267 1.458946,-1.162369c-0.52356,-1.06456 -2.100563,-1.431503 -2.142342,-2.718491c-1.486748,0.809082 -2.498085,1.911011 -3.577232,3.010254c-1.79158,-0.09668 -1.868813,3.036705 0.065887,2.990562c0.79422,0.176331 3.776154,1.137085 1.428215,0.889046c-0.699821,-0.109016 -1.458946,-0.489143 -1.437744,0.224464c-0.320961,-0.049782 -0.607742,-0.188774 -0.903046,-0.299171l0,0z" stroke-linecap="null" stroke-linejoin="null" stroke-dasharray="null" stroke-width="0" fill="#000000"/>
 </g>
</svg>
