<svg width="640" height="480" xmlns="http://www.w3.org/2000/svg" xmlns:svg="http://www.w3.org/2000/svg">
 <g>
  <title>hand writing</title>
  <g id="svg_1">
   <path id="svg_1" fill="#3B97D3" d="m163,123.899994l0,7.899994c0,3.300018 -2.200012,6.200012 -5.5,6.200012l-63,0c-3.300003,0 -6.5,-2.899994 -6.5,-6.200012l0,-88.999985c0,-3.300003 3.199997,-5.800003 6.5,-5.800003l63,0c3.299988,0 5.5,2.5 5.5,5.800003l0,48.899994l4,-4l0,-44.899994c0,-5.5 -4,-9.800003 -9.5,-9.800003l-63,0c-5.5,0 -10.5,4.300003 -10.5,9.800003l0,88.999985c0,5.5 5,10.200012 10.5,10.200012l63,0c5.5,0 9.5,-4.700012 9.5,-10.200012l0,-11.899994l-4,4z"/>
   <path id="svg_2" fill="#2C3E50" d="m183.700012,94.199997c0,-0.5 -0.200012,-0.899994 -0.600006,-1.199997c0,0 0,0 0,0l-5.200012,-5.200012c0,0 0,0 0,0c-0.299988,-0.299988 -0.799988,-0.499985 -1.299988,-0.599991l-4.899994,-0.300003c-0.600006,0 -1.100006,0.200012 -1.5,0.5c0,0 0,0 0,0l-24.800018,24.800003c-0.799988,0.800003 -0.799988,2 0,2.800003c0.399994,0.399994 0.900024,0.600006 1.399994,0.600006s1,-0.200012 1.400024,-0.600006l24.199982,-24.200012l3.300018,0.200012l4.099976,4.100006l0.200012,3.299988l-24.200012,24.200012c-0.799988,0.800003 -0.799988,2 0,2.799988c0.400024,0.399994 0.900024,0.600006 1.400024,0.600006s1,-0.200012 1.399994,-0.600006l24.799988,-24.799988c0.399994,-0.400009 0.600006,-1 0.600006,-1.5c0,0 0,0 0,0l-0.299988,-4.900009z"/>
   <path id="svg_3" fill="#2C3E50" d="m152.399994,119.600006l23.900024,-23.900009c0.399994,-0.399994 0.399994,-1 0,-1.399994s-1,-0.400009 -1.400024,0l-23.899994,23.899994c-0.399994,0.400009 -0.399994,1 0,1.400009c0.200012,0.199982 0.5,0.299988 0.700012,0.299988s0.5,-0.099991 0.699982,-0.299988z"/>
   <path id="svg_4" fill="#2C3E50" d="m152.799988,126l-7,1.600006l-2.699982,-2.700012l1.699982,-7c0.300018,-1.099991 -0.399994,-2.199997 -1.499969,-2.399994c-1.100006,-0.300003 -2.200012,0.399994 -2.400024,1.5l-3.199982,13.700012c-0.300018,1.099976 0.399994,2.199982 1.5,2.399994c0.199982,0 0.299988,0.100006 0.5,0.100006c0.199982,0 0.299988,0 0.5,-0.100006c0,0 0,0 0,0l13.699982,-3.200012c1.100006,-0.299988 1.700012,-1.299988 1.5,-2.399994c-0.399994,-1.100006 -1.5,-1.700012 -2.600006,-1.5z"/>
  </g>
  <text fill="#000000" stroke-width="0" stroke-dasharray="null" stroke-linejoin="null" stroke-linecap="null" x="202" y="255" id="svg_6" font-size="24" font-family="serif" text-anchor="middle" xml:space="preserve"/>
  <text fill="#000000" stroke-width="0" stroke-dasharray="null" stroke-linejoin="null" stroke-linecap="null" x="127" y="67" id="svg_7" font-size="24" font-family="Serif" text-anchor="middle" xml:space="preserve">JiaHe</text>
 </g>
</svg>
